<svg width="125" height="28" viewBox="0 0 125 28" fill="none" xmlns="http://www.w3.org/2000/svg">
<g clip-path="url(#clip0_5097_727)">
<path d="M33.1731 2.65687C31.857 1.79429 30.0961 2.15709 29.2232 3.46375L25.9525 8.42547C26.0457 8.25988 26.1358 8.09278 26.2214 7.92418C27.1064 6.12225 27.6743 4.13515 27.85 2.03666C26.3612 0.802249 24.4501 0.0585938 22.3663 0.0585938C19.1421 0.0585938 16.4799 1.92375 14.8558 4.46483C14.378 5.21149 12.6127 7.94827 12.3302 8.38784C12.3122 8.41644 12.3002 8.43451 12.2942 8.44203C12.3528 8.33666 12.4098 8.22977 12.4654 8.1244C13.4044 6.2773 14.0069 4.22999 14.1932 2.06225C12.7058 0.826335 10.7948 0.0811742 8.71243 0.0796689C3.99488 0.0766581 0.178774 3.82655 0.0946392 8.55042C0.0240262 12.502 2.67426 16.121 6.66615 17.0919L2.47895 23.4988C1.61206 24.825 1.98166 26.6044 3.30527 27.473C4.62889 28.3416 6.40473 27.9713 7.27162 26.6435L13.2587 17.4833H13.2437C11.0922 18.4076 8.34133 17.6173 7.93268 17.4833C7.83652 17.4517 7.36176 17.2831 7.20702 17.2033C7.20401 17.2033 7.20251 17.2003 7.1995 17.1988C7.33773 17.2244 12.2866 18.2044 15.5409 13.9457C16.7909 15.567 18.5216 16.6283 20.3275 17.0663L16.1403 23.4732C15.2734 24.7994 15.643 26.5788 16.9666 27.4474C18.2903 28.3145 20.0661 27.9457 20.933 26.6179L26.9201 17.4577H26.905C24.7536 18.382 22.0027 17.5917 21.594 17.4577C21.4979 17.4261 21.0231 17.256 20.8684 17.1777C20.8654 17.1777 20.8639 17.1747 20.8609 17.1732C20.9916 17.1973 26.2815 18.2736 29.4997 13.5076L33.9979 6.62504C34.4771 5.89644 35.012 3.86569 33.1731 2.65687ZM10.8654 10.6745C10.1097 11.4332 8.97084 11.8156 7.82601 11.5326C6.07571 11.1005 5.05407 9.31214 5.48376 7.61709C5.91946 5.90246 7.6968 4.88633 9.35245 5.29128C11.7503 5.87988 12.6142 8.91623 10.8654 10.6745ZM24.5688 10.6128C23.8131 11.3986 22.6547 11.799 21.4874 11.513C19.7371 11.081 18.7154 9.29257 19.1451 7.59752C19.5793 5.88289 21.3582 4.86676 23.0138 5.27171C25.4116 5.85881 26.25 8.86203 24.5688 10.6128Z" fill="#AA8FFF"/>
<path d="M61.1464 8.37858H61.1494C60.281 7.656 59.0115 7.28719 57.3709 7.28116C56.3673 7.28116 55.4403 7.49041 54.6245 7.91493C53.8207 8.33192 53.1236 8.84826 52.5542 9.44891C52.1966 9.82676 51.8946 10.1941 51.6497 10.5478C51.3402 9.80719 50.9166 9.15837 50.3832 8.61342C49.5013 7.71471 48.1281 7.25407 46.3057 7.24805H46.2846C45.5379 7.24805 44.8348 7.36848 44.1978 7.60633C43.5608 7.84418 42.9733 8.1603 42.449 8.54568C41.9953 8.87987 41.5971 9.23966 41.2606 9.61901C41.2155 9.07708 41.0067 8.60891 40.6371 8.22353C40.2119 7.78396 39.6711 7.55966 39.025 7.55815H39.016C38.3745 7.55815 37.8336 7.77944 37.4084 8.2145C36.9848 8.64955 36.7684 9.196 36.7669 9.8388L36.7263 23.467C36.7233 24.1113 36.9382 24.6577 37.3589 25.0973C37.7825 25.5369 38.3234 25.7612 38.9709 25.7627H38.98C39.6215 25.7627 40.1623 25.5414 40.5875 25.1063C41.0112 24.6713 41.2276 24.1248 41.2291 23.482L41.2531 15.0339C41.2561 14.3549 41.3973 13.7362 41.6738 13.1973C41.9457 12.6659 42.3619 12.2323 42.9072 11.9102C43.4526 11.588 44.1212 11.4255 44.8934 11.4255H44.9084C45.6987 11.4285 46.3072 11.588 46.7158 11.9027C47.132 12.2233 47.4114 12.6373 47.5707 13.1687C47.736 13.7242 47.8186 14.3594 47.8171 15.0534L47.7931 23.5016C47.79 24.1459 48.0049 24.6939 48.4256 25.1319C48.8492 25.5715 49.3901 25.7958 50.0376 25.7973H50.0467C50.6882 25.7973 51.2291 25.576 51.6542 25.1409C52.0779 24.7059 52.2943 24.1594 52.2958 23.5166L52.3198 15.0685C52.3228 14.3896 52.464 13.7708 52.7405 13.2319C53.0124 12.7005 53.4286 12.267 53.9739 11.9448C54.5223 11.6227 55.1954 11.4556 55.9752 11.4601C56.7654 11.4631 57.3739 11.6227 57.7825 11.9373C58.1987 12.2579 58.4782 12.6719 58.6374 13.2033C58.8027 13.7588 58.8853 14.3941 58.8838 15.088L58.8598 23.5362C58.8568 24.1805 59.0716 24.7285 59.4923 25.1665C59.916 25.6061 60.4568 25.8304 61.1044 25.8319H61.1134C61.7534 25.8319 62.2958 25.6106 62.7194 25.1756C63.1431 24.7405 63.3595 24.1941 63.361 23.5513L63.385 15.1031C63.3895 13.7001 63.2348 12.404 62.9253 11.2523C62.6068 10.0676 62.0088 9.10267 61.1479 8.38461L61.1464 8.37858Z" fill="#030D1C"/>
<path d="M68.3114 7.66016H68.3024C67.6638 7.66016 67.126 7.87994 66.7038 8.31349C66.2816 8.74553 66.0668 9.29048 66.0638 9.93026L66.0232 23.5584C66.0202 24.1997 66.2336 24.7462 66.6527 25.1812C67.0734 25.6193 67.6143 25.8421 68.2573 25.8436H68.2663C68.9048 25.8436 69.4427 25.6238 69.8664 25.1903C70.2885 24.7567 70.5034 24.2118 70.5064 23.5735L70.547 9.94532C70.55 9.30553 70.3366 8.75908 69.9175 8.32252C69.4938 7.88446 68.9544 7.66016 68.3114 7.66016Z" fill="#030D1C"/>
<path d="M86.7744 8.4679C86.7744 8.4679 85.7002 7.375 82.9057 7.375H82.8862C82.1214 7.375 81.3988 7.49543 80.7422 7.73027C80.0842 7.96661 79.4862 8.28274 78.9589 8.66962C78.4826 9.02038 78.0559 9.39973 77.6924 9.80016C77.6593 9.23263 77.4505 8.74339 77.0659 8.34446C76.6437 7.9064 76.1028 7.68511 75.4613 7.6821H75.4523C74.8137 7.6821 74.2759 7.90188 73.8537 8.33543C73.4315 8.76747 73.2152 9.31242 73.2137 9.9522L73.1731 23.5804C73.1701 24.2217 73.3835 24.7681 73.8026 25.2032C74.2233 25.6412 74.7642 25.864 75.4072 25.8655H75.4162C76.0547 25.8655 76.5926 25.6458 77.0163 25.2122C77.4369 24.7787 77.6548 24.2352 77.6563 23.5954L77.6803 15.1473C77.6833 14.4683 77.8336 13.8526 78.1311 13.3122C78.427 12.7763 78.8597 12.3397 79.4186 12.0146C79.976 11.6924 80.6746 11.5283 81.4934 11.5283H81.5115C82.3498 11.5313 82.9943 11.6939 83.43 12.0116C83.8687 12.3322 84.1662 12.7507 84.333 13.2836C84.5088 13.8391 84.5974 14.4744 84.5959 15.1668L84.5719 23.615C84.5689 24.2563 84.7822 24.8027 85.2014 25.2378C85.6235 25.6759 86.1629 25.8987 86.8059 25.9002H86.815C87.4535 25.9002 87.9913 25.6804 88.4135 25.2468C88.8357 24.8133 89.0505 24.2698 89.0535 23.6301L89.0791 15.1819C89.0836 13.7789 88.9228 12.4827 88.6043 11.3311C88.2753 10.1494 87.6608 9.18597 86.7789 8.46941H86.7744V8.4679Z" fill="#030D1C"/>
<path d="M106.705 1.01322C106.707 1.01322 104.465 1.02677 104.458 3.28182L104.441 9.18139C104.371 9.12268 104.297 9.06698 104.223 9.00978C103.624 8.55365 102.909 8.17279 102.1 7.87774C101.285 7.58118 100.379 7.42763 99.4081 7.42462H99.384C97.8771 7.42462 96.4844 7.82956 95.2434 8.62591C93.9994 9.42376 92.9958 10.5423 92.2596 11.9513C91.525 13.3558 91.1509 14.9997 91.1448 16.8392C91.1388 18.6562 91.5054 20.2926 92.2311 21.6986C92.9583 23.1121 93.9664 24.2367 95.2284 25.0435C96.4934 25.8519 97.9237 26.2644 99.4832 26.2674H99.5057C100.359 26.2674 101.164 26.1259 101.901 25.8459C102.635 25.5659 103.281 25.2167 103.828 24.8102C104.061 24.6386 104.274 24.461 104.467 24.2833C104.582 24.7635 105.123 25.9588 106.63 25.9603H106.638C107.939 25.9603 108.872 24.9728 108.876 23.6902L108.935 3.29688C108.941 1.67559 107.688 1.01623 106.702 1.01172L106.705 1.01322ZM103.993 19.567C103.607 20.3543 103.066 20.9835 102.383 21.4367C101.708 21.8838 100.91 22.1111 100.006 22.1111H99.991C99.1031 22.1081 98.3113 21.8762 97.6367 21.4216C96.9561 20.9655 96.4183 20.3317 96.0367 19.5414C95.6536 18.745 95.4598 17.8418 95.4628 16.8513C95.4658 15.8412 95.6641 14.9259 96.0517 14.1326C96.4363 13.3453 96.9787 12.716 97.6623 12.2614C98.3369 11.8143 99.1256 11.587 100.005 11.587H100.02C100.927 11.59 101.731 11.8218 102.408 12.2764C103.087 12.7326 103.627 13.3663 104.008 14.1567C104.392 14.9545 104.585 15.8713 104.582 16.8814C104.579 17.8689 104.381 18.7736 103.993 19.567Z" fill="#030D1C"/>
<path d="M124.35 18.2775C123.981 17.6166 123.492 17.0702 122.892 16.6502C121.515 15.6852 119.618 15.208 118.932 15.0168C117.737 14.6856 116.539 14.365 115.914 13.796C115.64 13.5491 115.508 13.2179 115.509 12.7874C115.509 12.3192 115.625 11.9805 115.85 11.7818C116.39 11.3031 117.212 11.2429 117.751 11.2429C118.52 11.2459 119.208 11.3844 119.796 11.6538C120.379 11.9218 120.847 12.2846 121.192 12.7347L121.222 12.7678C121.549 13.0734 121.968 13.248 122.467 13.2872C122.972 13.3263 123.423 13.1908 123.807 12.8867C124.339 12.4562 124.584 11.9579 124.533 11.4039C124.486 10.8951 124.326 10.451 124.054 10.0777C123.573 9.45597 122.97 8.94715 122.263 8.56629C121.566 8.19296 120.823 7.91446 120.057 7.74285C119.297 7.57124 118.556 7.48393 117.859 7.48242H117.834C116.735 7.48242 115.672 7.69769 114.673 8.12221C113.657 8.55274 112.817 9.17748 112.177 9.97533C111.524 10.7882 111.192 11.7863 111.189 12.9439C111.186 13.9555 111.384 14.8106 111.777 15.488C112.167 16.1609 112.682 16.7074 113.305 17.1153C113.912 17.5127 114.59 17.8394 115.322 18.0893C116.483 18.4867 118.616 19.1039 119.198 19.3192C119.703 19.5074 120.113 19.7347 120.415 19.9996C120.685 20.236 120.816 20.5476 120.814 20.9555C120.813 21.4478 120.688 21.8091 120.451 22.0304C119.423 22.9818 117.046 22.6551 115.99 22.1237C115.317 21.785 114.665 21.3003 114.054 20.6831C113.637 20.2646 113.196 20.0312 112.739 19.9921C112.287 19.953 111.856 20.0583 111.454 20.3097C110.831 20.7072 110.499 21.1994 110.472 21.7715C110.445 22.3134 110.561 22.7695 110.817 23.1323C111.699 24.317 112.825 25.157 114.163 25.6252C115.479 26.0889 116.815 26.3237 118.133 26.3282H118.157C120.573 26.3282 122.634 25.288 123.843 23.8413C124.542 23.0059 124.896 21.9837 124.901 20.805C124.907 19.1235 124.348 18.2775 124.348 18.2775H124.35Z" fill="#030D1C"/>
<path d="M68.2661 1.20898C66.9004 1.20898 65.7947 2.31844 65.7947 3.68532C65.7947 5.05221 66.9004 6.16167 68.2661 6.16167C69.6318 6.16167 70.7376 5.05371 70.7376 3.68532C70.7376 2.31694 69.6318 1.20898 68.2661 1.20898Z" fill="#030D1C"/>
</g>
<defs>
<clipPath id="clip0_5097_727">
<rect width="125" height="28" fill="white"/>
</clipPath>
</defs>
</svg>
