<svg fill="none" height="186" viewBox="0 0 832 186" width="832" xmlns="http://www.w3.org/2000/svg"><path d="m220.8 17.6506c-8.76-5.73-20.48-3.32-26.29 5.36l-21.77 32.96c.62-1.1 1.22-2.21 1.79-3.33 5.89-11.97 9.67-25.17 10.84-39.11-9.91-8.19998-22.63-13.139975-36.5-13.139975-21.46 0-39.18 12.389975-49.9897 29.269975-3.18 4.96-14.93 23.14-16.81 26.06-.12.19-.2.31-.24.36.39-.7.77-1.41 1.14-2.11 6.25-12.27 10.26-25.87 11.5-40.27-9.9-8.20998-22.62-13.159976-36.48-13.169976-31.4-.02-56.80004 24.889976-57.360038 56.269976-.47 26.25 17.170038 50.2904 43.740038 56.7404l-27.87 42.56c-5.77 8.81-3.31 20.63 5.5 26.4s20.63 3.31 26.4-5.51l39.85-60.85h-.1c-14.32 6.14-32.63.89-35.35 0-.64-.21-3.8-1.33-4.83-1.86-.02 0-.03-.02-.05-.03.92.17 33.86 6.68 55.5197-21.6104 8.32 10.7704 19.84 17.8204 31.86 20.7304l-27.87 42.56c-5.77 8.81-3.31 20.63 5.5 26.4 8.81 5.76 20.63 3.31 26.4-5.51l39.85-60.85h-.1c-14.32 6.14-32.63.89-35.35 0-.64-.21-3.8-1.34-4.83-1.86-.02 0-.03-.02-.05-.03.87.16 36.08 7.31 57.5-24.3504l29.94-45.72c3.19-4.84 6.75-18.33-5.49-26.36zm-148.4797 53.26c-5.03 5.04-12.61 7.58-20.23 5.7-11.65-2.87-18.45-14.75-15.59-26.01 2.9-11.39 14.73-18.14 25.75-15.45 15.96 3.91 21.71 24.08 10.07 35.76zm91.2097-.41c-5.03 5.22-12.74 7.88-20.51 5.98-11.65-2.87-18.45-14.75-15.59-26.01 2.89-11.39 14.73-18.14 25.75-15.45 15.96 3.9 21.54 23.85 10.35 35.48z" fill="#aa8fff"/><g fill="#fff"><path d="m406.989 55.6604h.02c-5.78-4.8-14.23-7.25-25.15-7.29-6.68 0-12.85 1.39-18.28 4.21-5.35 2.77-9.99 6.2-13.78 10.19-2.38 2.51-4.39 4.95-6.02 7.3-2.06-4.92-4.88-9.23-8.43-12.85-5.87-5.97-15.01-9.03-27.14-9.07h-.14c-4.97 0-9.65.8-13.89 2.38s-8.15 3.68-11.64 6.24c-3.02 2.22-5.67 4.61-7.91 7.13-.3-3.6-1.69-6.71-4.15-9.27-2.83-2.92-6.43-4.41-10.73-4.42h-.06c-4.27 0-7.87 1.47-10.7 4.36-2.82 2.89-4.26 6.52-4.27 10.79l-.27 90.5296c-.02 4.28 1.41 7.91 4.21 10.83 2.82 2.92 6.42 4.41 10.73 4.42h.06c4.27 0 7.87-1.47 10.7-4.36 2.82-2.89 4.26-6.52 4.27-10.79l.16-56.1196c.02-4.51.96-8.62 2.8-12.2 1.81-3.53 4.58-6.41 8.21-8.55s8.08-3.22 13.22-3.22h.1c5.26.02 9.31 1.08 12.03 3.17 2.77 2.13 4.63 4.88 5.69 8.41 1.1 3.69 1.65 7.91 1.64 12.5196l-.16 56.12c-.02 4.28 1.41 7.92 4.21 10.83 2.82 2.92 6.42 4.41 10.73 4.42h.06c4.27 0 7.87-1.47 10.7-4.36 2.82-2.89 4.26-6.52 4.27-10.79l.16-56.12c.02-4.5096.96-8.6196 2.8-12.1996 1.81-3.53 4.58-6.41 8.21-8.55 3.65-2.14 8.13-3.25 13.32-3.22 5.26.02 9.31 1.08 12.03 3.17 2.77 2.13 4.63 4.88 5.69 8.41 1.1 3.69 1.65 7.91 1.64 12.5196l-.16 56.12c-.02 4.28 1.41 7.92 4.21 10.83 2.82 2.92 6.42 4.41 10.73 4.42h.06c4.26 0 7.87-1.47 10.69-4.36s4.26-6.52 4.27-10.79l.16-56.12c.03-9.3196-1-17.9296-3.06-25.5796-2.12-7.87-6.1-14.28-11.83-19.05z"/><path d="m454.679 50.8809h-.06c-4.25 0-7.83 1.46-10.64 4.34-2.81 2.87-4.24 6.49-4.26 10.74l-.27 90.5301c-.02 4.26 1.4 7.89 4.19 10.78 2.8 2.91 6.4 4.39 10.68 4.4h.06c4.25 0 7.83-1.46 10.65-4.34 2.81-2.88 4.24-6.5 4.26-10.74l.27-90.5301c.02-4.25-1.4-7.88-4.19-10.78-2.82-2.91-6.41-4.4-10.69-4.4z"/><path d="m577.571 56.2502s-7.15-7.26-25.75-7.26h-.13c-5.09 0-9.9.8-14.27 2.36-4.38 1.57-8.36 3.67-11.87 6.24-3.17 2.33-6.01 4.85-8.43 7.51-.22-3.77-1.61-7.02-4.17-9.67-2.81-2.91-6.41-4.38-10.68-4.4h-.06c-4.25 0-7.83 1.46-10.64 4.34-2.81 2.87-4.25 6.49-4.26 10.74l-.27 90.5298c-.02 4.26 1.4 7.89 4.19 10.78 2.8 2.91 6.4 4.39 10.68 4.4h.06c4.25 0 7.83-1.46 10.65-4.34 2.8-2.88 4.25-6.49 4.26-10.74l.16-56.12c.02-4.5098 1.02-8.5998 3-12.1898 1.97-3.56 4.85-6.46 8.57-8.62 3.71-2.14 8.36-3.23 13.81-3.23h.12c5.58.02 9.87 1.1 12.77 3.21 2.92 2.13 4.9 4.91 6.01 8.45 1.17 3.69 1.76 7.91 1.75 12.5098l-.16 56.12c-.02 4.26 1.4 7.89 4.19 10.78 2.81 2.91 6.4 4.39 10.68 4.4h.06c4.25 0 7.83-1.46 10.64-4.34s4.24-6.49 4.26-10.74l.17-56.12c.03-9.3198-1.04-17.9298-3.16-25.5798-2.19-7.85-6.28-14.25-12.15-19.01h-.03z"/><path d="m710.231 6.73071c.01 0-14.91.09-14.96 15.06999l-.11 39.19c-.47-.39-.96-.76-1.45-1.14-3.99-3.03-8.75-5.56-14.13-7.52-5.43-1.97-11.46-2.99-17.92-3.01h-.16c-10.03 0-19.3 2.69-27.56 7.98-8.28 5.3-14.96 12.73-19.86 22.09-4.89 9.33-7.38 20.25-7.42 32.4703-.04 12.07 2.4 22.94 7.23 32.28 4.84 9.39 11.55 16.86 19.95 22.22 8.42 5.37 17.94 8.11 28.32 8.13h.15c5.68 0 11.04-.94 15.94-2.8 4.89-1.86 9.19-4.18 12.83-6.88 1.55-1.14 2.97-2.32 4.25-3.5.77 3.19 4.37 11.13 14.4 11.14h.05c8.66 0 14.87-6.56 14.9-15.08l.39-135.4703c.04-10.77-8.3-15.15-14.86-15.18zm-18.05 123.25029c-2.57 5.23-6.17 9.41-10.72 12.42-4.49 2.97-9.8 4.48-15.82 4.48h-.1c-5.91-.02-11.18-1.56-15.67-4.58-4.53-3.03-8.11-7.24-10.65-12.49-2.55-5.29-3.84-11.29-3.82-17.87.02-6.71 1.34-12.7903 3.92-18.0603 2.56-5.23 6.17-9.41 10.72-12.43 4.49-2.97 9.74-4.48 15.59-4.48h.1c6.04.02 11.39 1.56 15.9 4.58 4.52 3.03 8.11 7.24 10.65 12.49 2.55 5.3 3.84 11.3903 3.82 18.1003-.02 6.56-1.34 12.57-3.92 17.84z"/><path d="m827.671 121.411c-2.45-4.39-5.71-8.02-9.7-10.81-9.17-6.41-21.79-9.58-26.36-10.8498-7.95-2.2-15.93-4.33-20.09-8.11-1.82-1.64-2.7-3.84-2.69-6.7 0-3.11.77-5.36 2.27-6.68 3.59-3.18 9.06-3.58 12.65-3.58 5.12.02 9.7.94 13.61 2.73 3.88 1.78 7 4.19 9.29 7.18l.2.22c2.18 2.03 4.97 3.19 8.29 3.45 3.36.26 6.36-.64 8.92-2.66 3.54-2.86 5.17-6.17 4.83-9.85-.31-3.38-1.38-6.33-3.19-8.81-3.2-4.13-7.21-7.51-11.92-10.04-4.64-2.48-9.58-4.33-14.68-5.47-5.06-1.14-9.99-1.72-14.63-1.73h-.17c-7.31 0-14.39 1.43-21.04 4.25-6.76 2.86-12.35 7.01-16.61 12.31-4.35 5.4-6.56 12.03-6.58 19.72-.02 6.72 1.3 12.4 3.92 16.8998 2.59 4.47 6.02 8.1 10.17 10.81 4.04 2.64 8.55 4.81 13.42 6.47 7.73 2.64 21.93 6.74 25.8 8.17 3.36 1.25 6.09 2.76 8.1 4.52 1.8 1.57 2.67 3.64 2.66 6.35-.01 3.27-.84 5.67-2.42 7.14-6.84 6.32-22.66 4.15-29.69.62-4.48-2.25-8.82-5.47-12.89-9.57-2.77-2.78-5.71-4.33-8.75-4.59-3.01-.26-5.88.44-8.55 2.11-4.15 2.64-6.36 5.91-6.54 9.71-.18 3.6.59 6.63 2.3 9.04 5.87 7.87 13.36 13.45 22.27 16.56 8.76 3.08 17.65 4.64 26.42 4.67h.16c16.08 0 29.8-6.91 37.85-16.52 4.65-5.55 7.01-12.34 7.04-20.17.04-11.17-3.68-16.79-3.68-16.79z"/><path d="m454.38 8.03125c-9.09 0-16.45 7.36995-16.45 16.44995s7.36 16.45 16.45 16.45 16.45-7.36 16.45-16.45-7.36-16.44995-16.45-16.44995z"/></g></svg>